<svg height="80" viewBox="0 0 80 80" width="80" xmlns="http://www.w3.org/2000/svg"><g fill="#7c7b7b"><path d="m36 110.933h-29.333a6.674 6.674 0 0 0 -6.667 6.667v42.667a6.674 6.674 0 0 0 6.667 6.667h17.333v-2.667h-17.333a4 4 0 0 1 -4-4v-42.667a4 4 0 0 1 4-4h29.333a4 4 0 0 1 4 4v1.333h2.667v-1.333a6.674 6.674 0 0 0 -6.667-6.667z" transform="translate(0 -93.6)"/><path d="m79.733 0h-16a4 4 0 0 0 0 8h16a4 4 0 1 0 0-8zm0 5.333h-16a1.333 1.333 0 1 1 0-2.667h16a1.333 1.333 0 1 1 0 2.667z" transform="translate(-50.4)"/><path d="m14.667 6.667h2.667v12h-2.667z"/><path d="m25.333 6.667h2.667v12h-2.667z"/><path d="m8 40h2.667v24h-2.667z"/><path d="m24 25.333h2.667v10.667h-2.667z"/><path d="m13.2 452.267a4.667 4.667 0 1 0 4.667 4.667 4.672 4.672 0 0 0 -4.667-4.667zm0 6.667a2 2 0 1 1 2-2 2 2 0 0 1 -2 2z" transform="translate(-7.2 -381.6)"/><path d="m16 25.333h2.667v38.667h-2.667z"/><path d="m14.572 195.23-2.667-6.667a1.332 1.332 0 0 0 -.728-.736 1.318 1.318 0 0 0 -1.036.007l-9.333 4a1.331 1.331 0 0 0 -.808 1.225v8a1.332 1.332 0 0 0 1.333 1.333 1.318 1.318 0 0 0 .543-.116l12-5.333a1.334 1.334 0 0 0 .696-1.713zm-11.905 3.777v-5.069l7.269-3.115 1.683 4.205z" transform="translate(0 -158.393)"/><path d="m8 25.333h2.667v6.667h-2.667z"/><path d="m32 25.333h2.667v10.667h-2.667z"/><path d="m209.467 452.267a4.667 4.667 0 1 0 4.667 4.667 4.672 4.672 0 0 0 -4.667-4.667zm0 6.667a2 2 0 1 1 2-2 2 2 0 0 1 -2 2z" transform="translate(-172.8 -381.6)"/><path d="m181.333 213.333h-46.666a6.674 6.674 0 0 0 -6.667 6.667v26.667a6.674 6.674 0 0 0 6.667 6.667h46.667a6.674 6.674 0 0 0 6.666-6.668v-26.666a6.675 6.675 0 0 0 -6.667-6.667zm4 33.333a4 4 0 0 1 -4 4h-46.666a4 4 0 0 1 -4-4v-26.666a4 4 0 0 1 4-4h46.667a4 4 0 0 1 4 4v26.667z" transform="translate(-108 -180)"/><path d="m286.4 179.2h-12a1.333 1.333 0 0 0 -1.333 1.333v5.333h2.667v-4h9.333v4h2.667v-5.333a1.333 1.333 0 0 0 -1.334-1.333z" transform="translate(-230.4 -151.2)"/><path d="m257.6 145.067h-12a6.674 6.674 0 0 0 -6.667 6.667v5.333h2.667v-5.333a4 4 0 0 1 4-4h12a4 4 0 0 1 4 4v5.333h2.667v-5.333a6.674 6.674 0 0 0 -6.667-6.667z" transform="translate(-201.6 -122.4)"/><path d="m271.746 257.535-6.667-9.333a1.381 1.381 0 0 0 -2.169 0l-6.667 9.333a1.332 1.332 0 0 0 1.085 2.108h13.333a1.333 1.333 0 0 0 1.084-2.108zm-11.827-.559 4.081-5.705 4.075 5.705z" transform="translate(-215.995 -208.976)"/><path d="m386.274 333.064c-4.195-1.367-8.528.364-9.667 3.855a6.128 6.128 0 0 0 .837 5.333 8.882 8.882 0 0 0 4.695 3.483 9.389 9.389 0 0 0 2.9.468c3.129 0 5.889-1.643 6.765-4.323 1.144-3.493-1.338-7.448-5.53-8.816zm3 7.989c-.683 2.1-3.513 3.057-6.305 2.147a6.215 6.215 0 0 1 -3.293-2.411 3.522 3.522 0 0 1 -.533-3.043c.508-1.559 2.2-2.489 4.188-2.489a6.822 6.822 0 0 1 2.115.343c2.792.913 4.508 3.359 3.825 5.453z" transform="translate(-317.524 -280.628)"/><path d="m141.2 452.267a4.667 4.667 0 1 0 4.667 4.667 4.672 4.672 0 0 0 -4.667-4.667zm0 6.667a2 2 0 1 1 2-2 2 2 0 0 1 -2 2z" transform="translate(-115.2 -381.6)"/><path d="m448.4 452.267a4.667 4.667 0 1 0 4.667 4.667 4.672 4.672 0 0 0 -4.667-4.667zm0 6.667a2 2 0 1 1 2-2 2 2 0 0 1 -2 2z" transform="translate(-374.4 -381.6)"/><path d="m32 61.333h2.667v10.667h-2.667z"/><path d="m177.334 213.333h-5.334a1.334 1.334 0 0 0 -1.333 1.333v16h2.667v-14.666h2.666v17.333h2.667v-18.667a1.334 1.334 0 0 0 -1.333-1.333z" transform="translate(-144 -180)"/><path d="m26.667 57.333h2.667v14.667h-2.667z"/><path d="m70.667 62.667h2.667v9.333h-2.667z"/><path d="m424.8 213.333h-5.333a1.333 1.333 0 0 0 -1.333 1.333v18.667h2.666v-17.333h2.667v20h2.667v-21.334a1.333 1.333 0 0 0 -1.334-1.333z" transform="translate(-352.801 -180)"/><path d="m65.333 64h2.667v8h-2.667z"/><path d="m149.5 300.619-16-9.333-1.344 2.305 14.92 8.7-1.464 2.927-12.1-7.259-1.372 2.287 13.333 8a1.34 1.34 0 0 0 .687.191 1.325 1.325 0 0 0 .373-.053 1.339 1.339 0 0 0 .82-.684l2.667-5.333a1.336 1.336 0 0 0 -.52-1.748z" transform="translate(-111.491 -245.773)"/></g></svg>