<svg height="80" viewBox="0 0 92.293 80" width="92.293" xmlns="http://www.w3.org/2000/svg"><g fill="#7c7b7b"><path d="m90.754 78.154h-1.538v-4.616a7.692 7.692 0 0 0 -4.616-7.038v-23.731a1.539 1.539 0 0 0 -.923-1.409 6.09 6.09 0 0 0 .923-3.206 6.153 6.153 0 1 0 -12.306 0 6.092 6.092 0 0 0 .855 3.077h-54.008a6.092 6.092 0 0 0 .859-3.077 6.153 6.153 0 1 0 -12.306 0 6.09 6.09 0 0 0 .923 3.206 1.539 1.539 0 0 0 -.923 1.409v23.731a7.692 7.692 0 0 0 -4.615 7.04v4.615h-1.541a1.538 1.538 0 0 0 -1.538 1.537v21.538a1.538 1.538 0 0 0 1.538 1.538h1.538v7.692a1.538 1.538 0 0 0 1.539 1.54h6.153a1.538 1.538 0 0 0 1.538-1.538v-7.692h67.681v7.692a1.538 1.538 0 0 0 1.538 1.538h6.153a1.538 1.538 0 0 0 1.538-1.538v-7.692h1.538a1.538 1.538 0 0 0 1.538-1.538v-21.54a1.538 1.538 0 0 0 -1.538-1.538zm-12.305-43.077a3.077 3.077 0 1 1 -3.076 3.077 3.077 3.077 0 0 1 3.076-3.077zm-64.6 0a3.077 3.077 0 1 1 -3.076 3.077 3.077 3.077 0 0 1 3.071-3.077zm-3.076 9.231h70.752v21.538h-6.193a7.613 7.613 0 0 0 1.578-4.615v-3.077a7.7 7.7 0 0 0 -7.691-7.692h-12.305a7.7 7.7 0 0 0 -7.691 7.692v3.077a7.613 7.613 0 0 0 1.577 4.615h-9.308a7.613 7.613 0 0 0 1.578-4.615v-3.077a7.7 7.7 0 0 0 -7.691-7.692h-12.306a7.7 7.7 0 0 0 -7.691 7.692v3.077a7.613 7.613 0 0 0 1.578 4.615h-6.193zm63.061 13.846v3.077a4.615 4.615 0 0 1 -4.615 4.615h-12.305a4.615 4.615 0 0 1 -4.614-4.615v-3.077a4.615 4.615 0 0 1 4.615-4.615h12.304a4.615 4.615 0 0 1 4.615 4.615zm-33.841 0v3.077a4.615 4.615 0 0 1 -4.615 4.615h-12.305a4.615 4.615 0 0 1 -4.615-4.615v-3.077a4.615 4.615 0 0 1 4.615-4.615h12.306a4.615 4.615 0 0 1 4.614 4.615zm-33.84 15.384a4.615 4.615 0 0 1 4.615-4.615h70.757a4.615 4.615 0 0 1 4.615 4.615v4.615h-79.987zm3.076 35.385h-3.076v-6.154h3.076zm76.911 0h-3.077v-6.154h3.077zm3.076-9.231h-86.14v-18.461h86.14z" transform="translate(0 -32)"/><path d="m39.759 352h-6.207a1.552 1.552 0 0 0 0 3.1h6.207a1.552 1.552 0 0 0 0-3.1z" transform="translate(-25.793 -290.483)"/><path d="m162.727 352h-65.175a1.552 1.552 0 1 0 0 3.1h65.175a1.552 1.552 0 1 0 0-3.1z" transform="translate(-78.193 -290.483)"/></g></svg>