<svg height="80" viewBox="0 0 80.004 80" width="80.004" xmlns="http://www.w3.org/2000/svg"><path d="m75.09 10.984-10.29-2.807-4.86-6.534a4.055 4.055 0 0 0 -5.515-.937l-14.425 9.815-14.421-9.815a4.051 4.051 0 0 0 -5.512.943l-4.867 6.528-10.293 2.8a6.683 6.683 0 0 0 -4.907 6.439v55.929a6.675 6.675 0 0 0 6.667 6.667h66.67a6.675 6.675 0 0 0 6.663-6.667v-55.929a6.683 6.683 0 0 0 -4.91-6.432zm-7.568 9.559-2.607.869a1.333 1.333 0 0 0 -.817 1.761l2.341 5.85-21.57 21.57 19.067-38.128zm-18.678 16.134-4.687-12.5 2.912-4.377a4 4 0 0 0 2.4.812 4.05 4.05 0 0 0 2.356-.759l8.534-6.216zm7.081-33.767a1.367 1.367 0 0 1 1.859.313l.009.012 4.335 5.823-11.867 8.637a1.379 1.379 0 0 1 -1.668-.065l-.956-.8a1.458 1.458 0 0 0 -.112-.112c-.013-.008-.028-.008-.041-.016l-5.28-4.45zm-10.919 15.182-3.052 4.584h-3.9l-3.054-4.583 5-4.218zm-9.158 6.088-4.688 12.5-11.519-23.039 8.548 6.223a3.994 3.994 0 0 0 4.744-.059zm-13.638-20.945.009-.012a1.367 1.367 0 0 1 1.859-.313l13.722 9.334-5.279 4.448c-.013.009-.029.009-.043.017a1.346 1.346 0 0 0 -.115.115l-.952.8a1.375 1.375 0 0 1 -1.66.072l-11.869-8.643zm-6.139 9.231 19.068 38.127-21.574-21.571 2.341-5.85a1.336 1.336 0 0 0 -.817-1.761l-2.607-.868zm22.6 64.879h-32a4 4 0 0 1 -4-4v-55.929a4.008 4.008 0 0 1 2.948-3.859l8.027-2.189-4.197 9.432a1.333 1.333 0 0 0 .8 1.807l2.659.885-2.145 5.354a1.333 1.333 0 0 0 .3 1.439l27.606 27.615zm-5.88-37.411 5.471-14.591h3.485l5.467 14.591-7.214 14.429zm44.546 33.411a4 4 0 0 1 -4 4h-32v-19.445l27.609-27.614a1.333 1.333 0 0 0 .3-1.439l-2.146-5.353 2.659-.885a1.333 1.333 0 0 0 .8-1.807l-4.2-9.434 8.027 2.189a4.008 4.008 0 0 1 2.948 3.859v55.929z" fill="#7c7b7b" transform="translate(0 -.012)"/></svg>