<svg height="20.03" viewBox="0 0 20.03 20.03" width="20.03" xmlns="http://www.w3.org/2000/svg"><g fill="#ee4637"><path d="m18.152 1.878h-1.877v-.626a1.252 1.252 0 0 0 -1.252-1.252h-1.252a1.252 1.252 0 0 0 -1.252 1.252v.626h-5.008v-.626a1.252 1.252 0 0 0 -1.252-1.252h-1.251a1.252 1.252 0 0 0 -1.252 1.252v.626h-1.878a1.878 1.878 0 0 0 -1.878 1.878v14.4a1.878 1.878 0 0 0 1.878 1.874h16.274a1.878 1.878 0 0 0 1.878-1.878v-14.396a1.878 1.878 0 0 0 -1.878-1.878zm-4.382-.626h1.252v2.5h-1.251zm-8.763 0h1.252v2.5h-1.251zm-3.129 1.878h1.878v.626a1.252 1.252 0 0 0 1.252 1.252h1.251a1.252 1.252 0 0 0 1.252-1.252v-.626h5.008v.626a1.252 1.252 0 0 0 1.252 1.252h1.252a1.252 1.252 0 0 0 1.252-1.252v-.626h1.878a.626.626 0 0 1 .626.626v2.5h-17.527v-2.5a.626.626 0 0 1 .626-.626zm16.274 15.648h-16.274a.626.626 0 0 1 -.626-.626v-10.641h17.526v10.641a.626.626 0 0 1 -.626.626zm0 0"/><path d="m81.878 224a1.878 1.878 0 1 0 1.878 1.878 1.878 1.878 0 0 0 -1.878-1.878zm0 2.5a.626.626 0 1 1 .626-.626.626.626 0 0 1 -.626.626zm0 0" transform="translate(-76.87 -215.237)"/><path d="m337.878 224a1.878 1.878 0 1 0 1.878 1.878 1.878 1.878 0 0 0 -1.878-1.878zm0 2.5a.626.626 0 1 1 .626-.626.626.626 0 0 1 -.626.626zm0 0" transform="translate(-322.855 -215.237)"/><path d="m209.878 224a1.878 1.878 0 1 0 1.878 1.878 1.878 1.878 0 0 0 -1.878-1.878zm0 2.5a.626.626 0 1 1 .626-.626.626.626 0 0 1 -.626.626zm0 0" transform="translate(-199.863 -215.237)"/><path d="m81.878 352a1.878 1.878 0 1 0 1.878 1.878 1.878 1.878 0 0 0 -1.878-1.878zm0 2.5a.626.626 0 1 1 .626-.626.626.626 0 0 1 -.626.626zm0 0" transform="translate(-76.87 -338.229)"/><path d="m337.878 352a1.878 1.878 0 1 0 1.878 1.878 1.878 1.878 0 0 0 -1.878-1.878zm0 2.5a.626.626 0 1 1 .626-.626.626.626 0 0 1 -.626.626zm0 0" transform="translate(-322.855 -338.229)"/><path d="m209.878 352a1.878 1.878 0 1 0 1.878 1.878 1.878 1.878 0 0 0 -1.878-1.878zm0 2.5a.626.626 0 1 1 .626-.626.626.626 0 0 1 -.626.626zm0 0" transform="translate(-199.863 -338.229)"/></g></svg>