<svg height="80" viewBox="0 0 89.372 80" width="89.372" xmlns="http://www.w3.org/2000/svg"><g fill="#7c7b7b"><path d="m81.753 85.087a9.057 9.057 0 0 0 7.618-8.931v-9.056a1.51 1.51 0 0 0 -1.509-1.509h-42.29a1.509 1.509 0 0 0 -1.509 1.509v13.584h-2.993v-36.226a1.489 1.489 0 0 0 -.122-.593l-4.407-10.275v-7.246a1.51 1.51 0 0 0 -1.509-1.509h-27.17a1.51 1.51 0 0 0 -1.509 1.509v7.246l-4.406 10.279a1.49 1.49 0 0 0 -.122.589v51.853a4.771 4.771 0 0 0 2.954 8.524h74.026a1.509 1.509 0 0 0 1.359-.835l2.593-5.2h6.614v-3.022h-13.64a15.094 15.094 0 0 0 6.022-10.691zm.071-16.478h4.528v7.547a6.038 6.038 0 0 1 -4.528 5.823zm-44.552-25.661h-4.48l2.24-5.224zm.779 3.019v34.717h-6.038v-34.717zm-28.679-18.113h24.15v4.528h-24.15zm-.515 7.546h23.887l-3.235 7.547h-23.887zm-4.014 10.567h24.151v34.717h-3.207a4.692 4.692 0 0 0 -4.478 3.168l-7.345 2.1a4.8 4.8 0 0 0 -3.42 4.112l-5.7 4.071zm-.065 55.849a1.765 1.765 0 0 1 -1.025-3.2l7.229-5.164 1.672 8.362zm10.954 0-2.184-10.925a1.772 1.772 0 0 1 1.244-2.039l6.382-1.823 2 14.788zm10.491 0-2.183-16.116a1.762 1.762 0 0 1 1.747-2h18.277a15.1 15.1 0 0 0 6.092 12.075h-12.105v3.025h6.614l1.509 3.019zm53.159-3.016-1.509 3.019h-28.323l-1.51-3.019zm-12.682-3.022h-7.517a12.116 12.116 0 0 1 -12.1-12.1v-15.069h31.722v15.068a12.115 12.115 0 0 1 -12.105 12.101z" transform="translate(0 -24.835)"/><path d="m276.1 329.892a7.556 7.556 0 0 1 -7.547-7.547v-1.509h-3.019v1.509a10.58 10.58 0 0 0 10.566 10.565h1.509v-3.019z" transform="translate(-215.433 -264.986)"/><path d="m50.101 49.811h3.019v3.019h-3.019z"/><path d="m295.1 92.91h-18.109a2.264 2.264 0 0 1 0-4.528h6.792a7.556 7.556 0 0 0 7.547-7.547h-3.019a4.528 4.528 0 0 1 -4.528 4.528h-6.792a5.283 5.283 0 0 0 0 10.566h18.109a2.264 2.264 0 0 1 0 4.528h-21.883a7.556 7.556 0 0 0 -7.547 7.543h3.019a4.528 4.528 0 0 1 4.528-4.528h21.883a5.283 5.283 0 1 0 0-10.566z" transform="translate(-215.544 -70.269)"/><path d="m63.708 176.835a6.038 6.038 0 1 0 6.038 6.038 6.038 6.038 0 0 0 -6.038-6.038zm0 9.057a3.019 3.019 0 1 1 3.019-3.019 3.019 3.019 0 0 1 -3.019 3.019z" transform="translate(-46.789 -148.156)"/><path d="m10.881 43.774h12.075v3.019h-12.075z"/><path d="m10.881 49.811h12.075v3.019h-12.075z"/></g></svg>